<svg width="618" height="822" viewBox="0 0 618 822" fill="none" xmlns="http://www.w3.org/2000/svg">
<g filter="url(#filter0_d_2144_85)">
<g clip-path="url(#clip0_2144_85)">
<path d="M612 1H12V805H612V1Z" fill="#F3FBEC"/>
<path d="M92 1V805" stroke="#DEAFA0" stroke-width="4"/>
<path d="M12 51.25H612" stroke="#3F87A6" stroke-width="3"/>
<path d="M12 101.5H612" stroke="#3F87A6" stroke-width="3"/>
<path d="M12 151.75H612" stroke="#3F87A6" stroke-width="3"/>
<path d="M12 202H612" stroke="#3F87A6" stroke-width="3"/>
<path d="M12 252.25H612" stroke="#3F87A6" stroke-width="3"/>
<path d="M12 302.5H612" stroke="#3F87A6" stroke-width="3"/>
<path d="M12 352.75H612" stroke="#3F87A6" stroke-width="3"/>
<path d="M12 403H612" stroke="#3F87A6" stroke-width="3"/>
<path d="M12 453.25H612" stroke="#3F87A6" stroke-width="3"/>
<path d="M12 503.5H612" stroke="#3F87A6" stroke-width="3"/>
<path d="M12 553.75H612" stroke="#3F87A6" stroke-width="3"/>
<path d="M12 604H612" stroke="#3F87A6" stroke-width="3"/>
<path d="M12 654.25H612" stroke="#3F87A6" stroke-width="3"/>
<path d="M12 704.5H612" stroke="#3F87A6" stroke-width="3"/>
<path d="M12 754.75H612" stroke="#3F87A6" stroke-width="3"/>
</g>
</g>
<defs>
<filter id="filter0_d_2144_85" x="0" y="0" width="618" height="822" filterUnits="userSpaceOnUse" color-interpolation-filters="sRGB">
<feFlood flood-opacity="0" result="BackgroundImageFix"/>
<feColorMatrix in="SourceAlpha" type="matrix" values="0 0 0 0 0 0 0 0 0 0 0 0 0 0 0 0 0 0 127 0" result="hardAlpha"/>
<feOffset dx="-3" dy="8"/>
<feGaussianBlur stdDeviation="4.5"/>
<feComposite in2="hardAlpha" operator="out"/>
<feColorMatrix type="matrix" values="0 0 0 0 0 0 0 0 0 0 0 0 0 0 0 0 0 0 0.25 0"/>
<feBlend mode="normal" in2="BackgroundImageFix" result="effect1_dropShadow_2144_85"/>
<feBlend mode="normal" in="SourceGraphic" in2="effect1_dropShadow_2144_85" result="shape"/>
</filter>
<clipPath id="clip0_2144_85">
<rect width="600" height="804" fill="white" transform="translate(12 1)"/>
</clipPath>
</defs>
</svg>
