<svg xmlns="http://www.w3.org/2000/svg" width="600" height="800" viewBox="0 0 600 800">
    <rect width="100%" height="100%" fill="#f3fbec" />

    <line x1="80" y1="0" x2="80" y2="800" stroke="#deafa0" stroke-width="4" />

    <defs>
        <linearGradient id="red-bleed" x1="0%" y1="0%" x2="100%" y2="0%">
            <stop offset="0%" stop-color="#f28e8e" stop-opacity="1" />
            <stop offset="100%" stop-color="#f28e8e" stop-opacity="0" />
        </linearGradient>
    </defs>


    <line x1="0" y1="50" x2="600" y2="50" stroke="#3f87a6" stroke-width="3" />
    <line x1="0" y1="100" x2="600" y2="100" stroke="#3f87a6" stroke-width="3" />
    <line x1="0" y1="150" x2="600" y2="150" stroke="#3f87a6" stroke-width="3" />
    <line x1="0" y1="200" x2="600" y2="200" stroke="#3f87a6" stroke-width="3" />
    <line x1="0" y1="250" x2="600" y2="250" stroke="#3f87a6" stroke-width="3" />
    <line x1="0" y1="300" x2="600" y2="300" stroke="#3f87a6" stroke-width="3" />
    <line x1="0" y1="350" x2="600" y2="350" stroke="#3f87a6" stroke-width="3" />
    <line x1="0" y1="400" x2="600" y2="400" stroke="#3f87a6" stroke-width="3" />
    <line x1="0" y1="450" x2="600" y2="450" stroke="#3f87a6" stroke-width="3" />
    <line x1="0" y1="500" x2="600" y2="500" stroke="#3f87a6" stroke-width="3" />
    <line x1="0" y1="550" x2="600" y2="550" stroke="#3f87a6" stroke-width="3" />
    <line x1="0" y1="600" x2="600" y2="600" stroke="#3f87a6" stroke-width="3" />
    <line x1="0" y1="650" x2="600" y2="650" stroke="#3f87a6" stroke-width="3" />
    <line x1="0" y1="700" x2="600" y2="700" stroke="#3f87a6" stroke-width="3" />
    <line x1="0" y1="750" x2="600" y2="750" stroke="#3f87a6" stroke-width="3" />
</svg>
